<?xml version="1.0" encoding="UTF-8"?>
<!DOCTYPE svg PUBLIC "-//W3C//DTD SVG 1.1//EN" "http://www.w3.org/Graphics/SVG/1.1/DTD/svg11.dtd">
<svg xmlns="http://www.w3.org/2000/svg" version="1.1" width="200px" height="200px" style="shape-rendering:geometricPrecision; text-rendering:geometricPrecision; image-rendering:optimizeQuality; fill-rule:evenodd; clip-rule:evenodd" xmlns:xlink="http://www.w3.org/1999/xlink">
<g><path style="opacity:1" fill="#000000" d="M -0.5,-0.5 C 66.1667,-0.5 132.833,-0.5 199.5,-0.5C 199.5,66.1667 199.5,132.833 199.5,199.5C 132.833,199.5 66.1667,199.5 -0.5,199.5C -0.5,132.833 -0.5,66.1667 -0.5,-0.5 Z"/></g>
<g><path style="opacity:1" fill="#fbfbfb" d="M 135.5,123.5 C 111.5,123.5 87.5,123.5 63.5,123.5C 54.3247,122.833 44.9914,122.167 35.5,121.5C 51.4952,92.8388 67.9952,64.5054 85,36.5C 89.6346,44.6313 94.468,52.6313 99.5,60.5C 104.514,52.4639 109.514,44.4639 114.5,36.5C 131.041,65.0821 147.707,93.5821 164.5,122C 154.658,122.17 144.991,122.67 135.5,123.5 Z"/></g>
<g><path style="opacity:1" fill="#040404" d="M 98.5,62.5 C 99.4959,62.4142 100.329,62.7476 101,63.5C 111.914,82.9968 123.081,102.33 134.5,121.5C 111.174,122.666 87.8405,122.833 64.5,122C 75.9835,102.193 87.3168,82.36 98.5,62.5 Z"/></g>
<g><path style="opacity:1" fill="#fbfbfb" d="M 94.5,87.5 C 110.334,86.8278 116.501,94.1612 113,109.5C 106.571,118.039 98.7378,119.539 89.5,114C 81.5587,103.268 83.2254,94.4344 94.5,87.5 Z"/></g>
<g><path style="opacity:1" fill="#fefefe" d="M 63.5,123.5 C 87.5,123.5 111.5,123.5 135.5,123.5C 140.087,131.004 144.42,138.671 148.5,146.5C 115.833,147.833 83.1667,147.833 50.5,146.5C 54.5801,138.671 58.9135,131.004 63.5,123.5 Z"/></g>
<g><path style="opacity:1" fill="#d6d6d6" d="M 50.5,146.5 C 83.1667,147.833 115.833,147.833 148.5,146.5C 149.043,146.56 149.376,146.893 149.5,147.5C 116.167,148.833 82.8333,148.833 49.5,147.5C 49.6236,146.893 49.9569,146.56 50.5,146.5 Z"/></g>
</svg>
