<?xml version="1.0" encoding="UTF-8"?>
<!DOCTYPE svg PUBLIC "-//W3C//DTD SVG 1.1//EN" "http://www.w3.org/Graphics/SVG/1.1/DTD/svg11.dtd">
<svg xmlns="http://www.w3.org/2000/svg" version="1.1" width="200px" height="200px" style="shape-rendering:geometricPrecision; text-rendering:geometricPrecision; image-rendering:optimizeQuality; fill-rule:evenodd; clip-rule:evenodd" xmlns:xlink="http://www.w3.org/1999/xlink">
<g><path style="opacity:1" fill="#005741" d="M -0.5,-0.5 C 66.1667,-0.5 132.833,-0.5 199.5,-0.5C 199.5,66.1667 199.5,132.833 199.5,199.5C 132.833,199.5 66.1667,199.5 -0.5,199.5C -0.5,132.833 -0.5,66.1667 -0.5,-0.5 Z"/></g>
<g><path style="opacity:1" fill="#fcfdfc" d="M 70.5,130.5 C 69.5489,131.919 69.2155,133.585 69.5,135.5C 88.3408,135.83 107.007,135.497 125.5,134.5C 125.5,130.167 125.5,125.833 125.5,121.5C 130.5,121.5 135.5,121.5 140.5,121.5C 140.5,131.167 140.5,140.833 140.5,150.5C 111.833,150.5 83.1667,150.5 54.5,150.5C 51.3661,131.403 56.6994,115.236 70.5,102C 84.7059,89.6229 99.0393,77.4562 113.5,65.5C 114.043,65.44 114.376,65.1067 114.5,64.5C 99.3386,63.1738 84.3386,63.1738 69.5,64.5C 69.5,68.8333 69.5,73.1667 69.5,77.5C 64.5,77.5 59.5,77.5 54.5,77.5C 54.5,67.8333 54.5,58.1667 54.5,48.5C 83.1667,48.5 111.833,48.5 140.5,48.5C 140.5,67.8333 140.5,87.1667 140.5,106.5C 135.5,106.5 130.5,106.5 125.5,106.5C 125.666,96.1613 125.5,85.828 125,75.5C 108.292,89.3623 91.9584,103.696 76,118.5C 73.3441,122.144 71.5107,126.144 70.5,130.5 Z"/></g>
<g><path style="opacity:1" fill="#4a8878" d="M 69.5,64.5 C 84.3386,63.1738 99.3386,63.1738 114.5,64.5C 114.376,65.1067 114.043,65.44 113.5,65.5C 99.0095,64.504 84.3428,64.1707 69.5,64.5 Z"/></g>
<g><path style="opacity:1" fill="#4c8979" d="M 70.5,130.5 C 70.5,131.833 70.5,133.167 70.5,134.5C 88.8333,134.5 107.167,134.5 125.5,134.5C 107.007,135.497 88.3408,135.83 69.5,135.5C 69.2155,133.585 69.5489,131.919 70.5,130.5 Z"/></g>
</svg>
