<?xml version="1.0" encoding="UTF-8"?>
<!DOCTYPE svg PUBLIC "-//W3C//DTD SVG 1.1//EN" "http://www.w3.org/Graphics/SVG/1.1/DTD/svg11.dtd">
<svg xmlns="http://www.w3.org/2000/svg" version="1.1" width="128px" height="128px" style="shape-rendering:geometricPrecision; text-rendering:geometricPrecision; image-rendering:optimizeQuality; fill-rule:evenodd; clip-rule:evenodd" xmlns:xlink="http://www.w3.org/1999/xlink">
<g><path style="opacity:1" fill="#fcf8f7" d="M -0.5,-0.5 C 4.16667,-0.5 8.83333,-0.5 13.5,-0.5C 7.16667,2.5 2.5,7.16667 -0.5,13.5C -0.5,8.83333 -0.5,4.16667 -0.5,-0.5 Z"/></g>
<g><path style="opacity:1" fill="#fd6263" d="M 13.5,-0.5 C 46.1667,-0.5 78.8333,-0.5 111.5,-0.5C 119.002,1.66763 124.335,6.33429 127.5,13.5C 127.5,46.8333 127.5,80.1667 127.5,113.5C 124.311,120.693 118.978,125.36 111.5,127.5C 78.8333,127.5 46.1667,127.5 13.5,127.5C 6.33429,124.335 1.66763,119.002 -0.5,111.5C -0.5,78.8333 -0.5,46.1667 -0.5,13.5C 2.5,7.16667 7.16667,2.5 13.5,-0.5 Z"/></g>
<g><path style="opacity:1" fill="#fdf6f5" d="M 111.5,-0.5 C 116.833,-0.5 122.167,-0.5 127.5,-0.5C 127.5,4.16667 127.5,8.83333 127.5,13.5C 124.335,6.33429 119.002,1.66763 111.5,-0.5 Z"/></g>
<g><path style="opacity:1" fill="#fefcfb" d="M 65.5,27.5 C 73.2817,29.7609 80.9484,32.4276 88.5,35.5C 92.239,48.761 88.5724,59.261 77.5,67C 73.687,68.772 69.687,69.6053 65.5,69.5C 65.5,55.5 65.5,41.5 65.5,27.5 Z"/></g>
<g><path style="opacity:1" fill="#fefefd" d="M 58.5,28.5 C 60.49,51.8098 61.1567,75.4764 60.5,99.5C 48.7247,98.8954 41.2247,92.8954 38,81.5C 37.1671,66.1558 37.3338,50.8225 38.5,35.5C 44.9852,32.5879 51.6519,30.2546 58.5,28.5 Z"/></g>
<g><path style="opacity:1" fill="#fed8d8" d="M 58.5,28.5 C 59.209,27.596 60.209,27.2627 61.5,27.5C 61.8309,51.6725 61.4976,75.6725 60.5,99.5C 61.1567,75.4764 60.49,51.8098 58.5,28.5 Z"/></g>
<g><path style="opacity:1" fill="#fcf5f5" d="M 127.5,113.5 C 127.5,118.167 127.5,122.833 127.5,127.5C 122.167,127.5 116.833,127.5 111.5,127.5C 118.978,125.36 124.311,120.693 127.5,113.5 Z"/></g>
<g><path style="opacity:1" fill="#fdf7f6" d="M -0.5,111.5 C 1.66763,119.002 6.33429,124.335 13.5,127.5C 8.83333,127.5 4.16667,127.5 -0.5,127.5C -0.5,122.167 -0.5,116.833 -0.5,111.5 Z"/></g>
</svg>
