<?xml version="1.0" encoding="UTF-8"?>
<!DOCTYPE svg PUBLIC "-//W3C//DTD SVG 1.1//EN" "http://www.w3.org/Graphics/SVG/1.1/DTD/svg11.dtd">
<svg xmlns="http://www.w3.org/2000/svg" version="1.1" width="256px" height="256px" style="shape-rendering:geometricPrecision; text-rendering:geometricPrecision; image-rendering:optimizeQuality; fill-rule:evenodd; clip-rule:evenodd" xmlns:xlink="http://www.w3.org/1999/xlink">
<g><path style="opacity:0.979" fill="#4ca3ff" d="M 124.5,-0.5 C 126.5,-0.5 128.5,-0.5 130.5,-0.5C 155.409,31.2494 180.909,62.5827 207,93.5C 229.783,125.899 233.783,160.566 219,197.5C 202.718,229.617 176.885,248.951 141.5,255.5C 132.167,255.5 122.833,255.5 113.5,255.5C 65.8464,246.013 37.3464,217.346 28,169.5C 24.758,142.802 30.758,118.469 46,96.5C 72.3796,64.2924 98.5463,31.9591 124.5,-0.5 Z M 124.5,36.5 C 126.792,36.2436 128.959,36.5769 131,37.5C 149.621,61.1235 168.621,84.4568 188,107.5C 205.114,131.801 208.114,157.801 197,185.5C 194.167,191.17 190.834,196.503 187,201.5C 181.269,179.87 169.436,162.37 151.5,149C 141.337,142.084 131.003,135.417 120.5,129C 97.7361,108.923 93.5695,85.4232 108,58.5C 113.332,51.0068 118.832,43.6734 124.5,36.5 Z M 73.5,99.5 C 78.3579,122.024 90.3579,139.857 109.5,153C 125.117,161.217 138.95,171.717 151,184.5C 159.396,195.855 162.562,208.521 160.5,222.5C 126.885,236.637 97.0518,230.97 71,205.5C 50.3302,180.477 45.9969,152.81 58,122.5C 62.2134,114.133 67.3801,106.466 73.5,99.5 Z"/></g>
</svg>
